<svg width="215" height="51" xmlns="http://www.w3.org/2000/svg"><g fill="none" fill-rule="evenodd"><path d="M11.284 21.432c1.036 0 1.904-.168 2.436-.448l1.036-4.088h2.352l-.112 5.348c-1.456.644-3.22 1.092-6.02 1.092C4.956 23.336.56 20.452.56 13.004c0-7.84 5.208-10.528 10.556-10.528 2.52 0 4.508.336 5.712.812l.112 5.46h-2.352l-1.176-4.004c-.504-.252-1.316-.364-2.184-.364-2.828 0-4.396 2.352-4.396 8.26 0 6.328 1.4 8.792 4.452 8.792zm15.064 1.988c-4.676 0-7.868-3.164-7.868-8.148 0-4.928 3.136-7.98 7.84-7.98s7.896 3.052 7.896 8.008c0 4.984-3.136 8.12-7.868 8.12zm0-14.532c-1.484 0-2.352 1.288-2.352 6.412 0 5.152.868 6.496 2.38 6.496 1.484 0 2.324-1.372 2.324-6.524 0-5.124-.812-6.384-2.352-6.384zm8.736 12.908l1.596-.7V10.148L35 9.476V8.272l6.076-.896.616.056v1.792h.168c1.316-1.176 2.772-1.932 4.76-1.932 1.764 0 2.856.532 3.444 1.96h.112c1.372-1.204 2.912-1.96 4.9-1.96 2.52 0 3.892 1.288 3.892 4.088v9.716l1.624.7V23h-7.896v-1.204l1.26-.7v-8.932c0-1.54-.672-2.156-1.82-2.156-.644 0-1.288.224-1.82.448v10.64l1.26.7V23h-7.448v-1.204l1.288-.7v-8.932c0-1.54-.588-2.156-1.792-2.156-.728 0-1.316.196-1.848.476v10.612l1.232.7V23h-7.924v-1.204zm26.236 0l1.596-.7V10.148l-1.68-.672V8.272l6.076-.896.616.056v1.792h.168c1.316-1.176 2.772-1.932 4.76-1.932 1.764 0 2.856.532 3.444 1.96h.112c1.372-1.204 2.912-1.96 4.9-1.96 2.52 0 3.892 1.288 3.892 4.088v9.716l1.624.7V23h-7.896v-1.204l1.26-.7v-8.932c0-1.54-.672-2.156-1.82-2.156-.644 0-1.288.224-1.82.448v10.64l1.26.7V23h-7.448v-1.204l1.288-.7v-8.932c0-1.54-.588-2.156-1.792-2.156-.728 0-1.316.196-1.848.476v10.612l1.232.7V23H61.32v-1.204zm34.076 1.624c-4.676 0-7.868-3.164-7.868-8.148 0-4.928 3.136-7.98 7.84-7.98s7.896 3.052 7.896 8.008c0 4.984-3.136 8.12-7.868 8.12zm0-14.532c-1.484 0-2.352 1.288-2.352 6.412 0 5.152.868 6.496 2.38 6.496 1.484 0 2.324-1.372 2.324-6.524 0-5.124-.812-6.384-2.352-6.384zm8.736 12.88l1.596-.728V10.12l-1.68-.672V8.272l6.104-.896.616.056v1.792h.168c1.316-1.176 3.276-1.932 5.208-1.932 2.66 0 3.836 1.26 3.836 4.06v9.688l1.596.728V23h-8.12v-1.232l1.428-.644v-8.932c0-1.54-.672-2.156-1.932-2.156-.812 0-1.512.224-2.1.476v10.612l1.4.644V23h-8.12v-1.232zm32.396-14.112l2.912 9.268h.196l1.764-7.28-1.372-.728v-1.26h5.012v1.26l-1.316.728L140 23h-3.948l-2.52-8.204h-.112L131.096 23h-3.92l-3.864-13.356-1.344-.728v-1.26h8.204v1.26l-1.372.728 1.736 7.224h.196l2.436-9.212h3.36zm23.492 8.092h-9.1c.168 3.164 1.344 4.648 4.704 4.648 1.624 0 2.772-.336 3.864-.896v1.4c-.84 1.148-2.968 2.52-5.936 2.52-5.208 0-7.868-3.136-7.868-8.148 0-4.9 2.912-7.952 7.616-7.952 4.424 0 6.72 2.212 6.72 8.036v.392zm-6.86-6.888c-1.428 0-2.324 1.568-2.324 5.348l4.34-.28c0-3.92-.672-5.068-2.016-5.068zm12.852 5.824l3.36-.644v-2.1c0-2.1-.672-2.968-2.464-2.968a4.9 4.9 0 0 0-1.344.168l-1.036 3.36h-2.24V8.272c1.456-.448 3.276-.98 5.684-.98 4.144 0 6.524 1.148 6.524 4.62v9.016l1.456.728v1.008c-.532.364-1.68.7-2.912.7-1.932 0-2.856-.7-3.276-1.792h-.168c-.896 1.148-2.128 1.848-4.088 1.848-2.604 0-4.34-1.54-4.34-4.172 0-2.576 1.568-4.004 4.844-4.564zm2.016 6.16c.588 0 1.064-.168 1.344-.448v-4.76l-1.232.14c-1.372.14-2.016.924-2.016 2.632 0 1.96.784 2.436 1.904 2.436zm8.596-19.068L182.84.88l.616.084V21.04l1.596.728V23h-8.316v-1.232l1.596-.728V3.652l-1.708-.644V1.776zm11.088 7.952h-2.184V8.412l2.184-.756V4.912l5.096-.812v3.556h3.388v2.072h-3.388v9.016c0 1.568.448 2.212 2.128 2.212.504 0 1.092-.028 1.428-.084v1.456c-.896.532-2.38.98-4.116.98-3.052 0-4.536-1.344-4.536-4.648V9.728zm9.66 12.068l1.596-.728V3.68l-1.68-.672V1.776l6.076-.896.644.084v8.26h.168c1.344-1.176 3.276-1.932 5.208-1.932 2.66 0 3.836 1.26 3.836 4.06v9.716l1.596.728V23h-8.12v-1.204l1.428-.644v-8.96c0-1.54-.672-2.156-1.932-2.156-.84 0-1.512.196-2.1.448v10.668l1.4.644V23h-8.12v-1.204z" fill="#005689"/><path d="M11.228 50.364C4.704 50.364.56 47.34.56 40.032c0-7.784 5.152-10.556 10.892-10.556 2.436 0 4.732.392 6.02.924l.112 5.432h-2.352l-1.316-4.088c-.56-.224-1.372-.364-2.38-.364-3.052 0-4.564 2.24-4.564 8.26 0 6.916 1.26 8.848 4.06 8.848.728 0 1.288-.112 1.68-.28v-5.852l-1.848-.616v-1.512h8.568v1.512l-1.456.616v6.86c-1.512.588-4.06 1.148-6.748 1.148zm13.916-8.68l3.36-.644v-2.1c0-2.1-.672-2.968-2.464-2.968a4.9 4.9 0 0 0-1.344.168L23.66 39.5h-2.24v-4.228c1.456-.448 3.276-.98 5.684-.98 4.144 0 6.524 1.148 6.524 4.62v9.016l1.456.728v1.008c-.532.364-1.68.7-2.912.7-1.932 0-2.856-.7-3.276-1.792h-.168c-.896 1.148-2.128 1.848-4.088 1.848-2.604 0-4.34-1.54-4.34-4.172 0-2.576 1.568-4.004 4.844-4.564zm2.016 6.16c.588 0 1.064-.168 1.344-.448v-4.76l-1.232.14c-1.372.14-2.016.924-2.016 2.632 0 1.96.784 2.436 1.904 2.436zm8.68.952l1.596-.7V37.148l-1.68-.672v-1.204l6.076-.896.616.056v1.792h.168c1.316-1.176 2.772-1.932 4.76-1.932 1.764 0 2.856.532 3.444 1.96h.112c1.372-1.204 2.912-1.96 4.9-1.96 2.52 0 3.892 1.288 3.892 4.088v9.716l1.624.7V50h-7.896v-1.204l1.26-.7v-8.932c0-1.54-.672-2.156-1.82-2.156-.644 0-1.288.224-1.82.448v10.64l1.26.7V50h-7.448v-1.204l1.288-.7v-8.932c0-1.54-.588-2.156-1.792-2.156-.728 0-1.316.196-1.848.476v10.612l1.232.7V50H35.84v-1.204zm40.628-6.048h-9.1c.168 3.164 1.344 4.648 4.704 4.648 1.624 0 2.772-.336 3.864-.896v1.4c-.84 1.148-2.968 2.52-5.936 2.52-5.208 0-7.868-3.136-7.868-8.148 0-4.9 2.912-7.952 7.616-7.952 4.424 0 6.72 2.212 6.72 8.036v.392zm-6.86-6.888c-1.428 0-2.324 1.568-2.324 5.348l4.34-.28c0-3.92-.672-5.068-2.016-5.068zm15.708 4.06c3.22.784 4.592 2.212 4.592 5.096 0 3.416-2.044 5.348-6.608 5.348-1.792 0-3.752-.28-5.292-.84l-.168-4.004h1.848l1.176 2.66c.616.336 1.428.532 2.38.532 1.736 0 2.52-.756 2.52-1.932 0-1.008-.532-1.54-2.1-1.904l-1.036-.252c-3.276-.812-4.788-2.38-4.788-5.236 0-2.996 1.988-5.124 6.356-5.124 1.792 0 3.528.196 4.704.644v3.752h-1.848l-.812-2.408c-.448-.224-1.092-.336-1.932-.336-1.512 0-2.268.672-2.268 1.792 0 1.008.532 1.512 2.24 1.96l1.036.252zM109.924 45.8l-.392 4.2H95.728v-2.464l4.088-3.892c3.164-2.996 4.424-5.628 4.424-8.708 0-3.108-1.036-4.872-3.416-4.872l-4.312 6.272h-.476l.14-5.852c1.624-.644 3.892-.98 6.328-.98 4.62 0 7.252 1.876 7.252 5.516 0 3.612-2.408 6.02-7.448 8.68L98.5 45.716v.084h11.424zm9.856 4.536c-4.704 0-8.708-3.528-8.708-10.332 0-7.112 4.172-10.528 8.904-10.528 4.676 0 8.568 3.388 8.568 10.36 0 7-3.976 10.5-8.764 10.5zm.084-.504c2.016 0 2.688-3.192 2.688-9.772 0-6.944-.672-10.08-2.716-10.08-1.988 0-2.772 3.22-2.772 9.8 0 6.832.756 10.052 2.8 10.052zm10.052.168v-.476l2.912-.84V32.36l-2.884.672v-.616l5.824-2.772h2.184v19.04l2.8.84V50h-10.836zm26.936-5.292c0 3.528-2.716 5.684-7.672 5.684-5.04 0-7.392-1.932-7.392-5.068 0-2.772 2.128-4.452 4.844-4.928-2.492-1.568-3.948-3.248-3.948-5.628 0-3.248 2.464-5.292 6.888-5.292 4.788 0 6.748 1.876 6.748 4.368 0 2.576-2.128 3.892-4.62 4.396l.784.476c2.772 1.624 4.368 3.024 4.368 5.992zm-7-7.532l1.26.728c.84-.98 1.4-2.268 1.4-4.032 0-2.576-1.092-3.864-2.996-3.864-1.876 0-2.884 1.232-2.884 3.192 0 1.904 1.372 2.912 3.22 3.976zm-4.116 7.952c0 2.828 1.204 4.732 3.612 4.732 2.1 0 3.388-1.4 3.388-3.64 0-1.988-1.344-2.94-3.024-3.948l-2.52-1.512c-.924.924-1.456 2.492-1.456 4.368z" fill="#0084C6"/></g></svg>